<?xml version="1.0" standalone="no"?>
<!DOCTYPE svg PUBLIC "-//W3C//DTD SVG 20010904//EN"
 "http://www.w3.org/TR/2001/REC-SVG-20010904/DTD/svg10.dtd">
<svg version="1.0" xmlns="http://www.w3.org/2000/svg"
 width="700.000000pt" height="700.000000pt" viewBox="0 0 700.000000 700.000000"
 preserveAspectRatio="xMidYMid meet">
<metadata>
Created by potrace 1.11, written by Peter Selinger 2001-2013
</metadata>
<g transform="translate(0.000000,700.000000) scale(0.100000,-0.100000)"
fill="#000000" stroke="none">
<path d="M1151 6984 c-122 -43 -174 -113 -241 -318 -17 -52 -32 -102 -35 -113
-2 -10 -10 -49 -18 -88 -53 -240 -54 -467 -5 -728 14 -76 18 -123 12 -131 -34
-45 -147 -221 -173 -269 -45 -83 -114 -249 -144 -342 -34 -108 -74 -310 -83
-420 -11 -137 -5 -425 12 -570 33 -284 78 -482 160 -694 124 -319 317 -590
580 -811 103 -87 366 -239 540 -313 62 -26 299 -102 384 -123 41 -10 76 -18
77 -19 1 0 -9 -37 -23 -80 -42 -132 -55 -213 -61 -365 -3 -80 -6 -146 -7 -147
-1 -1 -46 -8 -101 -17 -213 -33 -429 -7 -570 67 -137 72 -219 152 -442 427
-200 248 -299 341 -448 421 -177 95 -311 106 -426 33 -160 -100 -184 -343 -46
-469 49 -45 68 -56 149 -85 68 -25 141 -88 231 -199 34 -42 64 -78 67 -81 3
-3 19 -23 36 -45 16 -22 34 -45 39 -52 6 -6 28 -33 50 -60 290 -351 590 -525
990 -573 106 -13 406 -3 463 15 9 4 12 -58 12 -285 0 -240 3 -297 16 -337 89
-262 442 -285 565 -36 l24 48 2 685 c2 672 4 749 22 820 26 102 88 223 146
286 120 129 150 257 89 381 -48 100 -145 163 -274 178 -338 41 -655 129 -874
242 -186 96 -368 249 -475 399 -115 161 -217 408 -254 614 -26 143 -30 173
-42 320 -11 139 -11 304 1 410 12 105 57 296 75 314 5 6 9 16 9 23 0 23 72
165 123 243 27 41 80 111 117 155 127 150 145 223 92 392 -49 154 -65 258 -65
413 0 113 19 267 35 276 11 7 132 -29 228 -68 147 -60 285 -133 458 -242 169
-106 196 -118 275 -121 44 -2 91 4 130 16 34 10 73 20 87 23 14 2 48 9 75 16
126 29 380 64 555 76 190 13 510 3 680 -21 19 -3 51 -7 70 -9 37 -5 162 -24
195 -31 71 -14 248 -56 256 -60 5 -4 34 -9 64 -11 80 -8 151 17 263 90 89 58
186 114 332 193 73 39 237 106 329 133 76 24 89 21 92 -20 0 -8 3 -26 5 -40
20 -104 23 -232 10 -363 -8 -74 -23 -137 -63 -266 -44 -143 -23 -242 77 -351
116 -127 262 -378 285 -490 4 -19 11 -39 15 -45 7 -9 32 -127 46 -220 12 -76
5 -428 -10 -510 -2 -11 -7 -47 -11 -80 -31 -265 -127 -534 -260 -735 -66 -99
-230 -262 -330 -329 -163 -107 -413 -211 -615 -255 -56 -12 -127 -27 -155 -32
-16 -2 -37 -7 -45 -9 -8 -2 -35 -7 -60 -10 -25 -3 -56 -8 -70 -10 -14 -2 -47
-7 -75 -10 -87 -10 -106 -15 -154 -39 -172 -88 -217 -314 -92 -464 131 -158
189 -275 206 -414 3 -29 7 -366 8 -748 l2 -695 23 -45 c31 -63 69 -103 133
-141 50 -30 61 -33 140 -33 70 -1 93 3 130 22 82 43 135 102 163 185 14 41 16
131 16 755 0 389 -2 716 -4 727 -2 11 -7 43 -10 70 -9 69 -31 159 -55 227
l-20 58 27 6 c232 54 429 123 612 215 465 233 793 608 966 1103 138 396 193
944 133 1336 -47 306 -183 630 -365 868 -25 34 -31 48 -25 65 7 19 17 68 36
182 23 136 23 358 0 530 -16 125 -84 360 -133 464 -31 66 -85 121 -149 153
-45 22 -59 23 -233 23 -177 -1 -190 -2 -305 -33 -214 -59 -483 -178 -729 -324
-97 -57 -114 -64 -140 -57 -17 4 -42 10 -56 13 -14 2 -61 12 -105 20 -44 9
-98 19 -120 22 -22 2 -51 7 -65 9 -24 4 -63 9 -145 19 -129 17 -209 20 -480
20 -282 0 -368 -4 -490 -20 -27 -3 -61 -8 -75 -9 -26 -3 -171 -25 -205 -31
-11 -2 -42 -8 -70 -14 -27 -5 -63 -12 -80 -15 -16 -2 -44 -9 -61 -14 -28 -8
-42 -2 -140 56 -98 59 -393 213 -408 213 -4 0 -25 9 -49 19 -71 33 -257 91
-351 111 -119 24 -361 26 -425 4z"/>
</g>
</svg>
